<mxfile host="65bd71144e">
    <diagram id="qWODmCn2Jy_ds5GxdyVR" name="Page-1">
        <mxGraphModel dx="764" dy="946" grid="1" gridSize="10" guides="1" tooltips="1" connect="1" arrows="1" fold="1" page="1" pageScale="1" pageWidth="850" pageHeight="1100" math="0" shadow="0">
            <root>
                <mxCell id="0"/>
                <mxCell id="1" parent="0"/>
                <mxCell id="2" value="" style="whiteSpace=wrap;html=1;" vertex="1" parent="1">
                    <mxGeometry x="80" y="50" width="660" height="600" as="geometry"/>
                </mxCell>
                <mxCell id="3" value="CAT 1" style="rounded=0;whiteSpace=wrap;html=1;" vertex="1" parent="1">
                    <mxGeometry x="80" y="50" width="110" height="60" as="geometry"/>
                </mxCell>
                <mxCell id="6" value="CAT 2" style="rounded=0;whiteSpace=wrap;html=1;" vertex="1" parent="1">
                    <mxGeometry x="190" y="50" width="110" height="60" as="geometry"/>
                </mxCell>
                <mxCell id="7" value="CAT 3" style="rounded=0;whiteSpace=wrap;html=1;" vertex="1" parent="1">
                    <mxGeometry x="300" y="50" width="110" height="60" as="geometry"/>
                </mxCell>
                <mxCell id="8" value="CAT 4" style="rounded=0;whiteSpace=wrap;html=1;" vertex="1" parent="1">
                    <mxGeometry x="410" y="50" width="110" height="60" as="geometry"/>
                </mxCell>
                <mxCell id="9" value="CAT 5" style="rounded=0;whiteSpace=wrap;html=1;" vertex="1" parent="1">
                    <mxGeometry x="520" y="50" width="110" height="60" as="geometry"/>
                </mxCell>
                <mxCell id="10" value="CAT 6" style="rounded=0;whiteSpace=wrap;html=1;" vertex="1" parent="1">
                    <mxGeometry x="630" y="50" width="110" height="60" as="geometry"/>
                </mxCell>
                <mxCell id="11" value="200" style="rounded=0;whiteSpace=wrap;html=1;" vertex="1" parent="1">
                    <mxGeometry x="80" y="110" width="110" height="90" as="geometry"/>
                </mxCell>
                <mxCell id="12" value="400" style="rounded=0;whiteSpace=wrap;html=1;" vertex="1" parent="1">
                    <mxGeometry x="80" y="200" width="110" height="90" as="geometry"/>
                </mxCell>
                <mxCell id="13" value="600" style="rounded=0;whiteSpace=wrap;html=1;" vertex="1" parent="1">
                    <mxGeometry x="80" y="290" width="110" height="90" as="geometry"/>
                </mxCell>
                <mxCell id="14" value="800" style="rounded=0;whiteSpace=wrap;html=1;" vertex="1" parent="1">
                    <mxGeometry x="80" y="380" width="110" height="90" as="geometry"/>
                </mxCell>
                <mxCell id="15" value="1000" style="rounded=0;whiteSpace=wrap;html=1;" vertex="1" parent="1">
                    <mxGeometry x="80" y="470" width="110" height="90" as="geometry"/>
                </mxCell>
                <mxCell id="16" value="1200&lt;br&gt;" style="rounded=0;whiteSpace=wrap;html=1;" vertex="1" parent="1">
                    <mxGeometry x="80" y="560" width="110" height="90" as="geometry"/>
                </mxCell>
                <mxCell id="30" value="200" style="rounded=0;whiteSpace=wrap;html=1;" vertex="1" parent="1">
                    <mxGeometry x="190" y="110" width="110" height="90" as="geometry"/>
                </mxCell>
                <mxCell id="31" value="400" style="rounded=0;whiteSpace=wrap;html=1;" vertex="1" parent="1">
                    <mxGeometry x="190" y="200" width="110" height="90" as="geometry"/>
                </mxCell>
                <mxCell id="32" value="600" style="rounded=0;whiteSpace=wrap;html=1;" vertex="1" parent="1">
                    <mxGeometry x="190" y="290" width="110" height="90" as="geometry"/>
                </mxCell>
                <mxCell id="33" value="800" style="rounded=0;whiteSpace=wrap;html=1;" vertex="1" parent="1">
                    <mxGeometry x="190" y="380" width="110" height="90" as="geometry"/>
                </mxCell>
                <mxCell id="34" value="1000" style="rounded=0;whiteSpace=wrap;html=1;" vertex="1" parent="1">
                    <mxGeometry x="190" y="470" width="110" height="90" as="geometry"/>
                </mxCell>
                <mxCell id="35" value="1200&lt;br&gt;" style="rounded=0;whiteSpace=wrap;html=1;" vertex="1" parent="1">
                    <mxGeometry x="190" y="560" width="110" height="90" as="geometry"/>
                </mxCell>
                <mxCell id="36" value="200" style="rounded=0;whiteSpace=wrap;html=1;" vertex="1" parent="1">
                    <mxGeometry x="300" y="110" width="110" height="90" as="geometry"/>
                </mxCell>
                <mxCell id="37" value="400" style="rounded=0;whiteSpace=wrap;html=1;" vertex="1" parent="1">
                    <mxGeometry x="300" y="200" width="110" height="90" as="geometry"/>
                </mxCell>
                <mxCell id="38" value="600" style="rounded=0;whiteSpace=wrap;html=1;" vertex="1" parent="1">
                    <mxGeometry x="300" y="290" width="110" height="90" as="geometry"/>
                </mxCell>
                <mxCell id="39" value="800" style="rounded=0;whiteSpace=wrap;html=1;" vertex="1" parent="1">
                    <mxGeometry x="300" y="380" width="110" height="90" as="geometry"/>
                </mxCell>
                <mxCell id="40" value="1000" style="rounded=0;whiteSpace=wrap;html=1;" vertex="1" parent="1">
                    <mxGeometry x="300" y="470" width="110" height="90" as="geometry"/>
                </mxCell>
                <mxCell id="41" value="1200&lt;br&gt;" style="rounded=0;whiteSpace=wrap;html=1;" vertex="1" parent="1">
                    <mxGeometry x="300" y="560" width="110" height="90" as="geometry"/>
                </mxCell>
                <mxCell id="42" value="200" style="rounded=0;whiteSpace=wrap;html=1;" vertex="1" parent="1">
                    <mxGeometry x="410" y="110" width="110" height="90" as="geometry"/>
                </mxCell>
                <mxCell id="43" value="400" style="rounded=0;whiteSpace=wrap;html=1;" vertex="1" parent="1">
                    <mxGeometry x="410" y="200" width="110" height="90" as="geometry"/>
                </mxCell>
                <mxCell id="44" value="600" style="rounded=0;whiteSpace=wrap;html=1;" vertex="1" parent="1">
                    <mxGeometry x="410" y="290" width="110" height="90" as="geometry"/>
                </mxCell>
                <mxCell id="45" value="800" style="rounded=0;whiteSpace=wrap;html=1;" vertex="1" parent="1">
                    <mxGeometry x="410" y="380" width="110" height="90" as="geometry"/>
                </mxCell>
                <mxCell id="46" value="1000" style="rounded=0;whiteSpace=wrap;html=1;" vertex="1" parent="1">
                    <mxGeometry x="410" y="470" width="110" height="90" as="geometry"/>
                </mxCell>
                <mxCell id="47" value="1200&lt;br&gt;" style="rounded=0;whiteSpace=wrap;html=1;" vertex="1" parent="1">
                    <mxGeometry x="410" y="560" width="110" height="90" as="geometry"/>
                </mxCell>
                <mxCell id="48" value="200" style="rounded=0;whiteSpace=wrap;html=1;" vertex="1" parent="1">
                    <mxGeometry x="520" y="110" width="110" height="90" as="geometry"/>
                </mxCell>
                <mxCell id="49" value="400" style="rounded=0;whiteSpace=wrap;html=1;" vertex="1" parent="1">
                    <mxGeometry x="520" y="200" width="110" height="90" as="geometry"/>
                </mxCell>
                <mxCell id="50" value="600" style="rounded=0;whiteSpace=wrap;html=1;" vertex="1" parent="1">
                    <mxGeometry x="520" y="290" width="110" height="90" as="geometry"/>
                </mxCell>
                <mxCell id="51" value="800" style="rounded=0;whiteSpace=wrap;html=1;" vertex="1" parent="1">
                    <mxGeometry x="520" y="380" width="110" height="90" as="geometry"/>
                </mxCell>
                <mxCell id="52" value="1000" style="rounded=0;whiteSpace=wrap;html=1;" vertex="1" parent="1">
                    <mxGeometry x="520" y="470" width="110" height="90" as="geometry"/>
                </mxCell>
                <mxCell id="53" value="1200&lt;br&gt;" style="rounded=0;whiteSpace=wrap;html=1;" vertex="1" parent="1">
                    <mxGeometry x="520" y="560" width="110" height="90" as="geometry"/>
                </mxCell>
                <mxCell id="54" value="200" style="rounded=0;whiteSpace=wrap;html=1;" vertex="1" parent="1">
                    <mxGeometry x="630" y="110" width="110" height="90" as="geometry"/>
                </mxCell>
                <mxCell id="55" value="400" style="rounded=0;whiteSpace=wrap;html=1;" vertex="1" parent="1">
                    <mxGeometry x="630" y="200" width="110" height="90" as="geometry"/>
                </mxCell>
                <mxCell id="56" value="600" style="rounded=0;whiteSpace=wrap;html=1;" vertex="1" parent="1">
                    <mxGeometry x="630" y="290" width="110" height="90" as="geometry"/>
                </mxCell>
                <mxCell id="57" value="800" style="rounded=0;whiteSpace=wrap;html=1;" vertex="1" parent="1">
                    <mxGeometry x="630" y="380" width="110" height="90" as="geometry"/>
                </mxCell>
                <mxCell id="58" value="1000" style="rounded=0;whiteSpace=wrap;html=1;" vertex="1" parent="1">
                    <mxGeometry x="630" y="470" width="110" height="90" as="geometry"/>
                </mxCell>
                <mxCell id="59" value="1200&lt;br&gt;" style="rounded=0;whiteSpace=wrap;html=1;" vertex="1" parent="1">
                    <mxGeometry x="630" y="560" width="110" height="90" as="geometry"/>
                </mxCell>
            </root>
        </mxGraphModel>
    </diagram>
</mxfile>